<svg width="330" height="362" viewBox="0 0 330 362" fill="none" xmlns="http://www.w3.org/2000/svg">
<rect x="51.3848" y="234.189" width="63.5685" height="108.326" fill="#DAE7F0"/>
<rect x="153.094" y="196.275" width="63.5685" height="146.241" fill="#DAE7F0"/>
<rect x="251.625" y="147.528" width="63.5685" height="194.987" fill="#DAE7F0"/>
<rect width="166.674" height="19.2658" transform="matrix(0.676341 -0.736589 0.724316 0.689468 0 237.522)" fill="#DAE7F0"/>
<rect width="184.476" height="19.2928" transform="matrix(0.710747 -0.703447 0.687504 0.726181 145.148 170.054)" fill="#DAE7F0"/>
<rect width="80.3788" height="19.3061" transform="matrix(0.732401 0.680873 -0.66452 0.74727 112.42 114.489)" fill="#DAE7F0"/>
<path d="M304.372 28.021L304.802 73.0974L260.413 24.5635L304.372 28.021Z" fill="#DAE7F0"/>
<g opacity="0.1">
<rect x="51.3848" y="253.674" width="63.5685" height="108.326" fill="#DAE7F0"/>
<rect x="153.094" y="215.759" width="63.5685" height="146.241" fill="#DAE7F0"/>
<rect x="251.625" y="167.012" width="63.5685" height="194.987" fill="#DAE7F0"/>
<rect width="166.674" height="19.2658" transform="matrix(0.676341 -0.736589 0.724316 0.689468 0 257.007)" fill="#DAE7F0"/>
<rect width="184.476" height="19.2928" transform="matrix(0.710747 -0.703447 0.687504 0.726181 145.148 189.539)" fill="#DAE7F0"/>
<rect width="80.3788" height="19.3061" transform="matrix(0.732401 0.680873 -0.66452 0.74727 112.42 133.973)" fill="#DAE7F0"/>
<path d="M304.372 47.5054L304.802 92.5818L260.413 44.0479L304.372 47.5054Z" fill="#DAE7F0"/>
</g>
</svg>
