<svg width="106" height="38" viewBox="0 0 106 38" fill="none" xmlns="http://www.w3.org/2000/svg">
<path d="M8.232 3.736C8.936 4.952 9.72 6.44 10.584 8.2C11.448 9.96 12.328 11.816 13.224 13.768C14.12 15.688 15 17.656 15.864 19.672C16.76 21.656 17.576 23.496 18.312 25.192C19.048 23.496 19.848 21.656 20.712 19.672C21.576 17.656 22.456 15.688 23.352 13.768C24.248 11.816 25.128 9.96 25.992 8.2C26.856 6.44 27.64 4.952 28.344 3.736H33.816C34.104 6.168 34.376 8.76 34.632 11.512C34.888 14.232 35.112 17.032 35.304 19.912C35.528 22.76 35.72 25.64 35.88 28.552C36.072 31.432 36.232 34.248 36.36 37H30.408C30.28 33.128 30.12 29.144 29.928 25.048C29.768 20.952 29.512 16.984 29.16 13.144C28.808 13.88 28.392 14.76 27.912 15.784C27.432 16.808 26.92 17.928 26.376 19.144C25.832 20.328 25.272 21.56 24.696 22.84C24.152 24.12 23.608 25.368 23.064 26.584C22.552 27.768 22.072 28.888 21.624 29.944C21.176 30.968 20.792 31.848 20.472 32.584H15.96C15.64 31.848 15.256 30.952 14.808 29.896C14.36 28.84 13.864 27.72 13.32 26.536C12.808 25.32 12.264 24.072 11.688 22.792C11.144 21.512 10.6 20.28 10.056 19.096C9.512 17.912 9 16.808 8.52 15.784C8.04 14.728 7.624 13.848 7.272 13.144C6.92 16.984 6.648 20.952 6.456 25.048C6.296 29.144 6.152 33.128 6.024 37H0.0720001C0.2 34.248 0.344 31.4 0.504 28.456C0.696 25.512 0.888 22.6 1.08 19.72C1.304 16.808 1.544 13.992 1.8 11.272C2.056 8.552 2.328 6.04 2.616 3.736H8.232ZM61.7899 36.232C60.6699 36.52 59.2139 36.808 57.4219 37.096C55.6299 37.416 53.6619 37.576 51.5179 37.576C49.5019 37.576 47.8059 37.288 46.4299 36.712C45.0859 36.136 43.9979 35.336 43.1659 34.312C42.3659 33.288 41.7899 32.072 41.4379 30.664C41.0859 29.224 40.9099 27.656 40.9099 25.96V11.896H46.7179V25.048C46.7179 27.736 47.1019 29.656 47.8699 30.808C48.6699 31.96 50.0459 32.536 51.9979 32.536C52.7019 32.536 53.4379 32.504 54.2059 32.44C55.0059 32.376 55.5979 32.296 55.9819 32.2V11.896H61.7899V36.232ZM73.5503 32.824C75.0863 32.824 76.2063 32.648 76.9103 32.296C77.6143 31.912 77.9663 31.272 77.9663 30.376C77.9663 29.544 77.5823 28.856 76.8143 28.312C76.0783 27.768 74.8463 27.176 73.1183 26.536C72.0623 26.152 71.0863 25.752 70.1903 25.336C69.3263 24.888 68.5743 24.376 67.9343 23.8C67.2943 23.224 66.7823 22.536 66.3983 21.736C66.0463 20.904 65.8703 19.896 65.8703 18.712C65.8703 16.408 66.7183 14.6 68.4143 13.288C70.1103 11.944 72.4143 11.272 75.3263 11.272C76.7983 11.272 78.2063 11.416 79.5503 11.704C80.8943 11.96 81.9023 12.216 82.5743 12.472L81.5183 17.176C80.8783 16.888 80.0623 16.632 79.0703 16.408C78.0783 16.152 76.9263 16.024 75.6143 16.024C74.4303 16.024 73.4703 16.232 72.7343 16.648C71.9983 17.032 71.6303 17.64 71.6303 18.472C71.6303 18.888 71.6943 19.256 71.8223 19.576C71.9823 19.896 72.2383 20.2 72.5903 20.488C72.9423 20.744 73.4063 21.016 73.9823 21.304C74.5583 21.56 75.2623 21.832 76.0943 22.12C77.4703 22.632 78.6383 23.144 79.5983 23.656C80.5583 24.136 81.3423 24.696 81.9503 25.336C82.5903 25.944 83.0543 26.648 83.3423 27.448C83.6303 28.248 83.7743 29.208 83.7743 30.328C83.7743 32.728 82.8783 34.552 81.0863 35.8C79.3263 37.016 76.7983 37.624 73.5023 37.624C71.2943 37.624 69.5183 37.432 68.1743 37.048C66.8303 36.696 65.8863 36.408 65.3423 36.184L66.3503 31.336C67.2143 31.688 68.2383 32.024 69.4223 32.344C70.6383 32.664 72.0143 32.824 73.5503 32.824ZM93.1357 37H87.3277V11.896H93.1357V37ZM93.7597 4.552C93.7597 5.64 93.4077 6.504 92.7037 7.144C91.9997 7.784 91.1677 8.104 90.2077 8.104C89.2157 8.104 88.3677 7.784 87.6637 7.144C86.9597 6.504 86.6077 5.64 86.6077 4.552C86.6077 3.432 86.9597 2.552 87.6637 1.912C88.3677 1.272 89.2157 0.951998 90.2077 0.951998C91.1677 0.951998 91.9997 1.272 92.7037 1.912C93.4077 2.552 93.7597 3.432 93.7597 4.552ZM104.481 37H98.6734V11.896H104.481V37ZM105.105 4.552C105.105 5.64 104.753 6.504 104.049 7.144C103.345 7.784 102.513 8.104 101.553 8.104C100.561 8.104 99.7134 7.784 99.0094 7.144C98.3054 6.504 97.9534 5.64 97.9534 4.552C97.9534 3.432 98.3054 2.552 99.0094 1.912C99.7134 1.272 100.561 0.951998 101.553 0.951998C102.513 0.951998 103.345 1.272 104.049 1.912C104.753 2.552 105.105 3.432 105.105 4.552Z" fill="white"/>
</svg>
